# xmcd CD database file
#
# Track frame offsets:
#	150
#	14359
#	28114
#	41774
#	55047
#	68349
#	81618
#	94958
#	105340
#	119256
#	135000
#	149593
#	163331
#	178000
#
# Disc length: 2574 seconds
#
# Revision: 4
# Processed by: cddbd v1.5.2PL0 Copyright (c) Steve Scherf et al.
# Submitted via: CDex 1.70beta2
#
DISCID=bb0a0c0e
DTITLE=Various Artist - Harmonica Blues, great harmonica performances of the 1920s and '30s  (Rec 1926-1939)
DYEAR=2002
DGENRE=Blues to 1940
TTITLE0=Railroad blues - Freeman Stowers
TTITLE1=Crazy about you - State Street Boys - Jazz Gillum, harmonica - Big Bill Broonzy, guitar
TTITLE2=Wang wang harmonica blues - Carver Boys
TTITLE3=My driving wheel - Lee Brown - Robert Lee McCoy, harmonica
TTITLE4=Bay rum blues - Ashley and Foster - Gwen Foster, harmonica
TTITLE5=I'm going to write and tell mother - Robert Hill
TTITLE6=Blowin' the blues - Chuck Darling
TTITLE7=Harmonica rag - Chuck Darling
TTITLE8=Man trouble blues - Jaybird Coleman
TTITLE9=I want you by my side - Jazz Gillum - Big Bill Broonzy, guitar
TTITLE10=Friday moan blues - Alfred Lewis
TTITLE11=House snake blues - Chicken Wilson and Skeeter Hinton - Jimmy Hinton, harmonica
TTITLE12=Need more blues - Bobby Leecan and Robert Cooksey
TTITLE13=Davidson County blues - DeFord Bailey
EXTD=YEAR: 2002
EXTT0=
EXTT1=
EXTT2=
EXTT3=
EXTT4=
EXTT5=
EXTT6=
EXTT7=
EXTT8=
EXTT9=
EXTT10=
EXTT11=
EXTT12=
EXTT13=
PLAYORDER=
